<svg xmlns="http://www.w3.org/2000/svg" xmlns:xlink="http://www.w3.org/1999/xlink" width="1080" zoomAndPan="magnify" viewBox="0 0 810 404.99999" height="540" preserveAspectRatio="xMidYMid meet" version="1.0" style=""><defs><clipPath id="42ce0bab56"><path d="M 55.4375 0 L 754.4375 0 L 754.4375 405 L 55.4375 405 Z M 55.4375 0 " clip-rule="nonzero" class="zdleTMqb_0"></path></clipPath></defs><g clip-path="url(#42ce0bab56)"><path stroke-linecap="butt" transform="matrix(1.539647, 0, 0, 1.539906, 55.43727, 0.00240054)" fill="none" stroke-linejoin="miter" d="M -57.001032 42.150475 C 20.246262 21.912831 77.140885 10.586549 149.339337 42.150475 C 227.565955 76.350013 253.076565 128.648772 328.469234 148.150778 C 390.623279 164.225727 465.08483 153.650303 483.79092 111.150744 " stroke="#c400d8" stroke-width="45" stroke-opacity="1" stroke-miterlimit="4" class="zdleTMqb_1"></path><path stroke-linecap="butt" transform="matrix(1.539647, 0, 0, 1.539906, 55.43727, 0.00240054)" fill="none" stroke-linejoin="miter" d="M -43.394528 83.802782 C 33.85023 63.565139 90.744852 52.23632 162.943304 83.802782 C 241.172459 118.00232 266.680532 170.301079 342.073201 189.803085 C 404.229784 205.878035 478.688798 195.30261 497.394887 152.803051 " stroke="#7c0185" stroke-width="45" stroke-opacity="1" stroke-miterlimit="4" class="zdleTMqb_2"></path><path stroke-linecap="butt" transform="matrix(1.539647, 0, 0, 1.539906, 55.43727, 0.00240054)" fill="none" stroke-linejoin="miter" d="M -29.79056 126.802068 C 47.454197 106.566961 104.34882 95.238142 176.549809 126.802068 C 254.776426 161.001605 280.284499 213.302901 355.679706 232.802371 C 417.833751 248.87732 492.292765 238.301896 510.998854 195.802337 " stroke="#5b0661" stroke-width="45" stroke-opacity="1" stroke-miterlimit="4" class="zdleTMqb_3"></path></g><style data-made-with="vivus-instant">.zdleTMqb_0{stroke-dasharray:2208 2210;stroke-dashoffset:2209;animation:zdleTMqb_draw 2000ms linear 0ms forwards;}.zdleTMqb_1{stroke-dasharray:592 594;stroke-dashoffset:593;animation:zdleTMqb_draw 2000ms linear 333ms forwards;}.zdleTMqb_2{stroke-dasharray:592 594;stroke-dashoffset:593;animation:zdleTMqb_draw 2000ms linear 666ms forwards;}.zdleTMqb_3{stroke-dasharray:592 594;stroke-dashoffset:593;animation:zdleTMqb_draw 2000ms linear 1000ms forwards;}@keyframes zdleTMqb_draw{100%{stroke-dashoffset:0;}}@keyframes zdleTMqb_fade{0%{stroke-opacity:1;}94.44444444444444%{stroke-opacity:1;}100%{stroke-opacity:0;}}</style></svg>