<svg width="454" height="263" viewBox="0 0 454 263" fill="none" xmlns="http://www.w3.org/2000/svg">
<path d="M-57 42.1496C20.2456 21.9137 77.1408 10.5854 149.339 42.1496C227.567 76.3496 253.076 128.65 328.469 148.15C390.624 164.226 465.084 153.65 483.79 111.15" stroke="#C400D8" stroke-width="45"/>
<path d="M-43.3952 83.8016C33.8504 63.5657 90.7456 52.2374 162.944 83.8016C241.172 118.002 266.681 170.302 342.074 189.802C404.229 205.878 478.689 195.302 497.395 152.802" stroke="#7C0185" stroke-width="45"/>
<path d="M-29.7904 126.802C47.4552 106.566 104.35 95.2374 176.549 126.802C254.776 161.002 280.285 213.302 355.679 232.802C417.833 248.878 492.293 238.302 511 195.802" stroke="#5B0661" stroke-width="45"/>
</svg>
