<svg width="1440" height="1025" viewBox="0 0 1440 1025" fill="none" xmlns="http://www.w3.org/2000/svg">
<g clip-path="url(#clip0_9_15)">
<path d="M0 73.8184L48 83.6455C96 93.6571 192 113.034 288 113.173C384 113.034 480 93.6571 576 86.1369C672 78.8934 768 83.5071 864 93.5187C960 103.346 1056 118.109 1152 113.173C1248 108.421 1344 83.5071 1392 71.3732L1440 59.0547V147.637H1392C1344 147.637 1248 147.637 1152 147.637C1056 147.637 960 147.637 864 147.637C768 147.637 672 147.637 576 147.637C480 147.637 384 147.637 288 147.637C192 147.637 96 147.637 48 147.637H0V73.8184Z" fill="#2B032D"/>
</g>
<rect y="145.637" width="1440" height="879.363" fill="#2B032D"/>
<defs>
<clipPath id="clip0_9_15">
<rect width="1440" height="147.637" fill="white"/>
</clipPath>
</defs>
</svg>
